<svg width="19" height="18" viewBox="0 0 19 18" fill="none" xmlns="http://www.w3.org/2000/svg">
<path d="M7.2478 10.0835C6.8681 10.0835 6.5603 10.3913 6.5603 10.771C6.5603 11.1507 6.8681 11.4585 7.2478 11.4585H10.9145C11.2942 11.4585 11.602 11.1507 11.602 10.771C11.602 10.3913 11.2942 10.0835 10.9145 10.0835H7.2478Z" fill="white"/>
<path fill-rule="evenodd" clip-rule="evenodd" d="M11.5237 0.0727319C11.8633 -0.0970732 12.2762 0.0405811 12.446 0.380191L14.1082 3.70457C14.5001 3.7245 14.8575 3.75494 15.1814 3.80144C16.1491 3.94039 16.9501 4.2391 17.5193 4.94324C18.0886 5.64737 18.2128 6.49315 18.1459 7.46853C18.0811 8.41377 17.8256 9.60579 17.5063 11.096L17.0925 13.0271C16.8771 14.0322 16.7024 14.8475 16.4826 15.4844C16.2535 16.1481 15.9515 16.6939 15.4358 17.1109C14.92 17.5278 14.323 17.7087 13.626 17.7937C12.9572 17.8752 12.1234 17.8752 11.0955 17.8752H7.06682C6.03894 17.8752 5.20514 17.8752 4.53631 17.7937C3.8393 17.7087 3.24231 17.5278 2.72656 17.1109C2.2108 16.6939 1.90882 16.1481 1.67972 15.4844C1.45989 14.8475 1.28519 14.0322 1.06984 13.0271L0.656028 11.096C0.336683 9.6058 0.0812334 8.41378 0.0163954 7.46853C-0.0505095 6.49315 0.0737473 5.64737 0.642982 4.94324C1.21222 4.2391 2.01319 3.94039 2.98093 3.80144C3.30477 3.75494 3.66214 3.7245 4.05402 3.70457L5.71621 0.380191C5.88601 0.0405811 6.29898 -0.0970732 6.63859 0.0727319C6.9782 0.242537 7.11585 0.6555 6.94605 0.99511L5.60925 3.66871C5.94251 3.66681 6.29327 3.66681 6.66188 3.66682H11.5004C11.869 3.66681 12.2198 3.66681 12.553 3.66871L11.2162 0.99511C11.0464 0.6555 11.1841 0.242537 11.5237 0.0727319ZM3.33557 5.14147L2.96621 5.88019C2.7964 6.2198 2.93406 6.63276 3.27367 6.80257C3.61328 6.97237 4.02624 6.83472 4.19605 6.49511L4.91769 5.05182C5.44056 5.04213 6.03588 5.04182 6.71792 5.04182H11.4444C12.1264 5.04182 12.7217 5.04213 13.2446 5.05182L13.9662 6.49511C14.136 6.83472 14.549 6.97237 14.8886 6.80257C15.2282 6.63276 15.3659 6.2198 15.196 5.88019L14.8267 5.14146C14.881 5.14803 14.934 5.15502 14.986 5.16248C15.7962 5.27881 16.1938 5.49067 16.45 5.80767C16.702 6.11933 16.826 6.54325 16.7768 7.33348H1.38549C1.33637 6.54325 1.46032 6.11933 1.71227 5.80767C1.96854 5.49067 2.36612 5.27881 3.17635 5.16248C3.22827 5.15503 3.28132 5.14803 3.33557 5.14147ZM2.01225 10.8627C1.83167 10.02 1.68059 9.31259 1.57087 8.70848H16.5915C16.4817 9.31259 16.3306 10.02 16.1501 10.8627L15.7572 12.696C15.5304 13.7543 15.3722 14.4873 15.1828 15.0357C14.9997 15.5664 14.8119 15.8471 14.5713 16.0416C14.3308 16.2361 14.017 16.3609 13.4597 16.4288C12.8837 16.499 12.1339 16.5002 11.0515 16.5002H7.11078C6.02842 16.5002 5.27861 16.499 4.70264 16.4288C4.14534 16.3609 3.83155 16.2361 3.59099 16.0416C3.35043 15.8471 3.16265 15.5664 2.97948 15.0357C2.79016 14.4873 2.63189 13.7543 2.40511 12.696L2.01225 10.8627Z" fill="white"/>
</svg>
