<svg width="20" height="16" viewBox="0 0 20 16" fill="none" xmlns="http://www.w3.org/2000/svg">
<path d="M12.8001 11.5589V2.1076C12.8001 1.73822 12.6496 1.38397 12.3816 1.12277C12.1136 0.86158 11.7501 0.714844 11.3711 0.714844H2.14387C1.76487 0.714844 1.40139 0.86158 1.1334 1.12277C0.865401 1.38397 0.714844 1.73822 0.714844 2.1076V11.336C0.714844 11.7054 0.865401 12.0596 1.1334 12.3208C1.40139 12.582 1.76487 12.7288 2.14387 12.7288H3.21564M18.7148 7.30677H12.8015M16.7914 12.4683H17.2844C17.6634 12.4683 18.0269 12.3216 18.2949 12.0604C18.5629 11.7992 18.7134 11.4449 18.7134 11.0756V6.89729L16.7228 2.92376C16.6052 2.68978 16.4225 2.49265 16.1957 2.35478C15.9688 2.2169 15.7069 2.14381 15.4395 2.14381H13.0573M11.9684 12.7288H7.77137M3.28709 12.7706C3.28709 13.2862 3.49727 13.7807 3.87139 14.1454C4.24551 14.51 4.75292 14.7148 5.28201 14.7148C5.81109 14.7148 6.31851 14.51 6.69263 14.1454C7.06675 13.7807 7.27693 13.2862 7.27693 12.7706C7.27693 12.2549 7.06675 11.7604 6.69263 11.3957C6.31851 11.0311 5.81109 10.8263 5.28201 10.8263C4.75292 10.8263 4.24551 11.0311 3.87139 11.3957C3.49727 11.7604 3.28709 12.2549 3.28709 12.7706ZM12.3428 12.7706C12.3428 13.2862 12.553 13.7807 12.9271 14.1454C13.3012 14.51 13.8087 14.7148 14.3377 14.7148C14.8668 14.7148 15.3742 14.51 15.7484 14.1454C16.1225 13.7807 16.3327 13.2862 16.3327 12.7706C16.3327 12.2549 16.1225 11.7604 15.7484 11.3957C15.3742 11.0311 14.8668 10.8263 14.3377 10.8263C13.8087 10.8263 13.3012 11.0311 12.9271 11.3957C12.553 11.7604 12.3428 12.2549 12.3428 12.7706Z" stroke="#329911" stroke-width="1.43" stroke-linecap="round" stroke-linejoin="round"/>
</svg>
