<svg width="15" height="15" viewBox="0 0 15 15" fill="none" xmlns="http://www.w3.org/2000/svg">
<path fill-rule="evenodd" clip-rule="evenodd" d="M7.12842 1.41026e-07L8.16667 2.99972e-07C8.44281 2.99972e-07 8.66667 0.223858 8.66667 0.5C8.66667 0.776143 8.44281 1 8.16667 1H7.16667C5.58118 1 4.44237 1.00106 3.57572 1.11758C2.72345 1.23216 2.20964 1.45009 1.82986 1.82986C1.45009 2.20964 1.23217 2.72345 1.11758 3.57572C1.00106 4.44237 1 5.58118 1 7.16667C1 8.75215 1.00106 9.89096 1.11758 10.7576C1.23217 11.6099 1.45009 12.1237 1.82986 12.5035C2.20964 12.8832 2.72345 13.1012 3.57572 13.2158C4.44237 13.3323 5.58118 13.3333 7.16667 13.3333C8.75215 13.3333 9.89096 13.3323 10.7576 13.2158C11.6099 13.1012 12.1237 12.8832 12.5035 12.5035C12.8832 12.1237 13.1012 11.6099 13.2158 10.7576C13.3323 9.89096 13.3333 8.75215 13.3333 7.16667V6.16667C13.3333 5.89052 13.5572 5.66667 13.8333 5.66667C14.1095 5.66667 14.3333 5.89052 14.3333 6.16667V7.20491C14.3333 8.74385 14.3333 9.94987 14.2068 10.8909C14.0773 11.854 13.8071 12.614 13.2106 13.2106C12.614 13.8071 11.854 14.0773 10.8909 14.2068C9.94987 14.3333 8.74385 14.3333 7.20491 14.3333H7.12842C5.58949 14.3333 4.38346 14.3333 3.44247 14.2068C2.47931 14.0773 1.7193 13.8071 1.12276 13.2106C0.526218 12.614 0.255991 11.854 0.126498 10.8909C-1.52389e-05 9.94987 -8.44204e-06 8.74385 1.41026e-07 7.20492V7.12841C-8.44204e-06 5.58949 -1.52389e-05 4.38346 0.126498 3.44247C0.255991 2.47931 0.526218 1.7193 1.12276 1.12276C1.7193 0.526218 2.47931 0.255991 3.44247 0.126498C4.38346 -1.52389e-05 5.58949 -8.44204e-06 7.12842 1.41026e-07ZM10.347 0.683943C11.2589 -0.227981 12.7375 -0.227981 13.6494 0.683943C14.5613 1.59587 14.5613 3.07439 13.6494 3.98631L9.21732 8.41838C8.9698 8.66594 8.81475 8.82101 8.64172 8.95597C8.43792 9.11493 8.21742 9.25121 7.9841 9.3624C7.78601 9.45681 7.57797 9.52614 7.24586 9.63681L5.30951 10.2823C4.95201 10.4014 4.55787 10.3084 4.29141 10.0419C4.02495 9.77546 3.9319 9.38132 4.05107 9.02383L4.69651 7.08749C4.80719 6.75537 4.87652 6.54733 4.97093 6.34923C5.08213 6.11592 5.21841 5.89541 5.37736 5.69161C5.51233 5.51858 5.6674 5.36353 5.91496 5.116L10.347 0.683943ZM12.9423 1.39105C12.4209 0.86965 11.5755 0.86965 11.0541 1.39105L10.803 1.64213C10.8182 1.70604 10.8394 1.78218 10.8688 1.86711C10.9644 2.14248 11.1452 2.50514 11.4867 2.84666C11.8282 3.18818 12.1909 3.36898 12.4662 3.46451C12.5512 3.49398 12.6273 3.51515 12.6912 3.53029L12.9423 3.27921C13.4637 2.75781 13.4637 1.91245 12.9423 1.39105ZM11.9034 4.31806C11.5595 4.17013 11.1588 3.93297 10.7796 3.55377C10.4004 3.17456 10.1632 2.77388 10.0153 2.4299L6.645 5.80017C6.36733 6.07785 6.25843 6.18797 6.16587 6.30663C6.05159 6.45316 5.9536 6.6117 5.87365 6.77945C5.80891 6.91531 5.75912 7.06195 5.63494 7.4345L5.34701 8.29829L6.03505 8.98633L6.89884 8.69839C7.27138 8.57421 7.41803 8.52442 7.55388 8.45968C7.72163 8.37973 7.88017 8.28175 8.0267 8.16746C8.14536 8.0749 8.25548 7.966 8.53316 7.68833L11.9034 4.31806Z" fill="#0E3051"/>
</svg>
