<svg width="28" height="25" viewBox="0 0 28 25" fill="none" xmlns="http://www.w3.org/2000/svg">
<path fill-rule="evenodd" clip-rule="evenodd" d="M5.59511 2.52451C3.47314 3.53747 1.9186 5.94682 1.9186 8.81989C1.9186 11.7551 3.06877 14.0176 4.71757 15.9565C6.07651 17.5545 7.72153 18.879 9.32586 20.1707C9.70691 20.4774 10.0857 20.7824 10.4577 21.0887C11.1306 21.6426 11.7308 22.1288 12.3093 22.4818C12.8881 22.8351 13.354 22.9963 13.75 22.9963C14.146 22.9963 14.6119 22.8351 15.1907 22.4818C15.7692 22.1288 16.3694 21.6426 17.0423 21.0887C17.4143 20.7824 17.7931 20.4774 18.1741 20.1707C19.7785 18.879 21.4235 17.5545 22.7824 15.9565C24.4312 14.0176 25.5814 11.7551 25.5814 8.81989C25.5814 5.94682 24.0269 3.53747 21.9049 2.52451C19.8434 1.54043 17.0735 1.80104 14.4412 4.65713C14.2603 4.85335 14.0108 4.96423 13.75 4.96423C13.4892 4.96423 13.2397 4.85335 13.0588 4.65713C10.4265 1.80104 7.6566 1.54043 5.59511 2.52451ZM13.75 2.57076C10.7927 -0.192387 7.48123 -0.578924 4.79749 0.702207C1.963 2.0553 0 5.19718 0 8.81989C0 12.3804 1.4204 15.0966 3.28301 17.287C4.77461 19.041 6.60029 20.5091 8.21268 21.8056C8.57819 22.0995 8.93274 22.3846 9.26995 22.6622C9.92514 23.2016 10.6285 23.7768 11.3413 24.2118C12.0538 24.6466 12.8669 25 13.75 25C14.6331 25 15.4462 24.6466 16.1587 24.2118C16.8715 23.7768 17.5749 23.2016 18.23 22.6622C18.5673 22.3846 18.9218 22.0995 19.2873 21.8056C20.8997 20.5091 22.7254 19.041 24.217 17.287C26.0796 15.0966 27.5 12.3804 27.5 8.81989C27.5 5.19718 25.537 2.0553 22.7025 0.702207C20.0188 -0.578924 16.7073 -0.192387 13.75 2.57076Z" fill="#1F1F1F"/>
</svg>
