<svg width="22" height="20" viewBox="0 0 22 20" fill="none" xmlns="http://www.w3.org/2000/svg">
<path fill-rule="evenodd" clip-rule="evenodd" d="M4.47609 2.01961C2.77852 2.82998 1.53488 4.75746 1.53488 7.05591C1.53488 9.4041 2.45501 11.2141 3.77406 12.7652C4.86121 14.0436 6.17723 15.1032 7.46069 16.1365C7.76552 16.382 8.06853 16.6259 8.36619 16.871C8.90445 17.3141 9.38461 17.703 9.84742 17.9855C10.3105 18.268 10.6832 18.3971 11 18.3971C11.3168 18.3971 11.6895 18.268 12.1526 17.9855C12.6154 17.703 13.0955 17.3141 13.6338 16.871C13.9315 16.6259 14.2345 16.382 14.5393 16.1365C15.8228 15.1032 17.1388 14.0436 18.2259 12.7652C19.545 11.2141 20.4651 9.4041 20.4651 7.05591C20.4651 4.75746 19.2215 2.82998 17.5239 2.01961C15.8747 1.23234 13.6588 1.44083 11.5529 3.72571C11.4083 3.88268 11.2086 3.97138 11 3.97138C10.7914 3.97138 10.5917 3.88268 10.4471 3.72571C8.34124 1.44083 6.12528 1.23234 4.47609 2.01961ZM11 2.05661C8.63418 -0.15391 5.98498 -0.463139 3.83799 0.561766C1.5704 1.64424 0 4.15775 0 7.05591C0 9.90436 1.13632 12.0773 2.62641 13.8296C3.81968 15.2328 5.28023 16.4073 6.57015 17.4445C6.86255 17.6796 7.14619 17.9077 7.41596 18.1298C7.94011 18.5613 8.50279 19.0214 9.07303 19.3694C9.64302 19.7173 10.2935 20 11 20C11.7065 20 12.357 19.7173 12.927 19.3694C13.4972 19.0214 14.0599 18.5613 14.584 18.1298C14.8538 17.9077 15.1374 17.6796 15.4299 17.4445C16.7198 16.4073 18.1803 15.2328 19.3736 13.8296C20.8637 12.0773 22 9.90436 22 7.05591C22 4.15775 20.4296 1.64424 18.162 0.561766C16.015 -0.463139 13.3658 -0.15391 11 2.05661Z" fill="#1F1F1F"/>
</svg>
