<svg width="22" height="22" viewBox="0 0 22 22" fill="none" xmlns="http://www.w3.org/2000/svg">
<path d="M11.0001 13.4612C9.94687 13.4612 9.08887 14.3641 9.08887 15.4742V21.0438C9.68745 21.0686 10.3245 21.0833 11.0001 21.0833C11.6757 21.0833 12.3128 21.0686 12.9114 21.0438V15.4742C12.9114 14.3641 12.0534 13.4612 11.0001 13.4612Z" fill="url(#paint0_linear_519_3948)"/>
<path d="M19.328 6.19491C19.2638 6.05833 19.1667 5.93916 19.0457 5.84933C18.8761 5.72283 18.7028 5.5945 18.5287 5.46616V3.213C18.5287 2.45308 17.9127 1.838 17.1537 1.838C16.3947 1.838 15.7787 2.45308 15.7787 3.213V3.50175C13.6942 2.07175 11.7719 0.916748 11.0001 0.916748C9.80932 0.916748 5.96757 3.59983 2.95357 5.85025C2.83166 5.94191 2.73357 6.062 2.66941 6.20133C2.62632 6.29483 1.61157 8.54983 1.61157 13.1478C1.61157 15.1324 1.79674 18.0703 2.00757 19.4343C2.06166 19.7827 2.31007 20.0687 2.64741 20.1713C2.73724 20.1988 4.33591 20.6737 7.25549 20.9276V15.4752C7.25549 13.3541 8.93482 11.6289 11.0001 11.6289C13.0653 11.6289 14.7447 13.3541 14.7447 15.4752V20.9276C17.6642 20.6746 19.262 20.1988 19.3509 20.1722C19.6873 20.0696 19.9367 19.7836 19.9898 19.4352C20.2016 18.0621 20.3886 15.1242 20.3886 13.1487C20.3886 8.51133 19.3711 6.28933 19.328 6.19675V6.19491Z" fill="url(#paint1_linear_519_3948)"/>
<defs>
<linearGradient id="paint0_linear_519_3948" x1="11.2801" y1="10.1721" x2="9.34613" y2="24.1827" gradientUnits="userSpaceOnUse">
<stop stop-color="#1C568E"/>
<stop offset="1" stop-color="#0E3051"/>
</linearGradient>
<linearGradient id="paint1_linear_519_3948" x1="12.3752" y1="-7.71831" x2="9.62491" y2="29.5626" gradientUnits="userSpaceOnUse">
<stop stop-color="#1C568E"/>
<stop offset="1" stop-color="#0E3051"/>
</linearGradient>
</defs>
</svg>
