<svg width="21" height="21" viewBox="0 0 21 21" fill="none" xmlns="http://www.w3.org/2000/svg">
<path d="M10.5048 5.11758C7.52354 5.11758 5.11885 7.52227 5.11885 10.5035C5.11885 13.4848 7.52354 15.8895 10.5048 15.8895C13.486 15.8895 15.8907 13.4848 15.8907 10.5035C15.8907 7.52227 13.486 5.11758 10.5048 5.11758ZM10.5048 14.0051C8.57822 14.0051 7.00322 12.4348 7.00322 10.5035C7.00322 8.57227 8.57353 7.00195 10.5048 7.00195C12.436 7.00195 14.0063 8.57227 14.0063 10.5035C14.0063 12.4348 12.4313 14.0051 10.5048 14.0051ZM17.3673 4.89727C17.3673 5.5957 16.8048 6.15352 16.111 6.15352C15.4126 6.15352 14.8548 5.59102 14.8548 4.89727C14.8548 4.20352 15.4173 3.64102 16.111 3.64102C16.8048 3.64102 17.3673 4.20352 17.3673 4.89727ZM20.9345 6.17227C20.8548 4.48945 20.4704 2.99883 19.2376 1.7707C18.0095 0.542578 16.5188 0.158203 14.836 0.0738281C13.1017 -0.0246094 7.90322 -0.0246094 6.16885 0.0738281C4.49072 0.153516 3.0001 0.537891 1.76729 1.76602C0.534473 2.99414 0.154785 4.48477 0.0704102 6.16758C-0.0280273 7.90195 -0.0280273 13.1004 0.0704102 14.8348C0.150098 16.5176 0.534473 18.0082 1.76729 19.2363C3.0001 20.4645 4.48604 20.8488 6.16885 20.9332C7.90322 21.0316 13.1017 21.0316 14.836 20.9332C16.5188 20.8535 18.0095 20.4691 19.2376 19.2363C20.4657 18.0082 20.8501 16.5176 20.9345 14.8348C21.0329 13.1004 21.0329 7.90664 20.9345 6.17227ZM18.6938 16.6957C18.3282 17.6145 17.6204 18.3223 16.697 18.6926C15.3142 19.241 12.0329 19.1145 10.5048 19.1145C8.97666 19.1145 5.69072 19.2363 4.3126 18.6926C3.39385 18.327 2.68604 17.6191 2.31572 16.6957C1.76729 15.3129 1.89385 12.0316 1.89385 10.5035C1.89385 8.97539 1.77197 5.68945 2.31572 4.31133C2.68135 3.39258 3.38916 2.68477 4.3126 2.31445C5.69541 1.76602 8.97666 1.89258 10.5048 1.89258C12.0329 1.89258 15.3188 1.7707 16.697 2.31445C17.6157 2.68008 18.3235 3.38789 18.6938 4.31133C19.2423 5.69414 19.1157 8.97539 19.1157 10.5035C19.1157 12.0316 19.2423 15.3176 18.6938 16.6957Z" fill="white"/>
</svg>
