<svg width="24" height="24" viewBox="0 0 24 24" fill="none" xmlns="http://www.w3.org/2000/svg">
<path d="M14.8572 16.0001V18.2858C14.8572 18.5889 14.7368 18.8796 14.5225 19.0939C14.3082 19.3082 14.0175 19.4287 13.7144 19.4287H5.71439C5.41128 19.4287 5.1206 19.3082 4.90627 19.0939C4.69194 18.8796 4.57153 18.5889 4.57153 18.2858V5.71439C4.57153 5.41128 4.69194 5.1206 4.90627 4.90627C5.1206 4.69194 5.41128 4.57153 5.71439 4.57153H13.7144C14.0175 4.57153 14.3082 4.69194 14.5225 4.90627C14.7368 5.1206 14.8572 5.41128 14.8572 5.71439V8.0001M11.4287 12.0001H19.4287M19.4287 12.0001L17.143 9.71439M19.4287 12.0001L17.143 14.2858" stroke="#828999" stroke-width="1.43" stroke-linecap="round" stroke-linejoin="round"/>
</svg>
