<svg width="20" height="19" viewBox="0 0 20 19" fill="none" xmlns="http://www.w3.org/2000/svg">
<path d="M14.5 5.85637e-08C13.6167 -0.000128949 12.7464 0.212883 11.963 0.620952C11.1796 1.02902 10.5062 1.6201 10 2.344C9.49382 1.6201 8.82044 1.02902 8.03703 0.620952C7.25363 0.212883 6.38332 -0.000128949 5.5 5.85637e-08C4.04131 5.85637e-08 2.64236 0.579463 1.61091 1.61091C0.579463 2.64236 0 4.04131 0 5.5C0 11.219 6.5 15.938 10 18.35C13.5 15.938 20 11.219 20 5.5C20 4.77773 19.8577 4.06253 19.5813 3.39524C19.3049 2.72795 18.8998 2.12163 18.3891 1.61091C17.8784 1.10019 17.2721 0.695063 16.6048 0.418663C15.9375 0.142262 15.2223 5.85637e-08 14.5 5.85637e-08Z" fill="#E51C23"/>
</svg>
