<svg width="21" height="19" viewBox="0 0 21 19" fill="none" xmlns="http://www.w3.org/2000/svg">
<path fill-rule="evenodd" clip-rule="evenodd" d="M1.58021 8.41481C1.6476 3.75098 5.47761 0 10.181 0C13.2915 0 16.0177 1.63992 17.528 4.09652C17.7319 4.42828 17.6283 4.86255 17.2966 5.0665C16.9648 5.27046 16.5305 5.16685 16.3266 4.8351C15.0641 2.78145 12.7848 1.41026 10.181 1.41026C6.24697 1.41026 3.05905 4.53886 2.99069 8.41281L3.36711 8.03933C3.64356 7.76504 4.09002 7.7668 4.3643 8.04325C4.63859 8.3197 4.63684 8.76616 4.36039 9.04044L2.78108 10.6074C2.50616 10.8802 2.06271 10.8802 1.7878 10.6074L0.20849 9.04044C-0.0679596 8.76616 -0.0697133 8.3197 0.204573 8.04325C0.478858 7.7668 0.925317 7.76504 1.20177 8.03933L1.58021 8.41481ZM17.4274 7.72499C17.7021 7.45349 18.1441 7.45349 18.4188 7.72499L20.0041 9.29194C20.2811 9.5657 20.2837 10.0122 20.0099 10.2891C19.7362 10.5661 19.2897 10.5687 19.0128 10.2949L18.6274 9.91404C18.5621 14.5824 14.7153 18.3333 9.99636 18.3333C6.87621 18.3333 4.14033 16.6946 2.6242 14.2378C2.41968 13.9064 2.52255 13.472 2.85395 13.2675C3.18536 13.0629 3.61981 13.1658 3.82432 13.4972C5.09159 15.5507 7.38033 16.9231 9.99636 16.9231C13.9509 16.9231 17.1507 13.7896 17.2169 9.91591L16.8334 10.2949C16.5565 10.5687 16.11 10.5661 15.8362 10.2891C15.5625 10.0122 15.5651 9.5657 15.8421 9.29194L17.4274 7.72499Z" fill="#828999"/>
</svg>
