<svg width="18" height="18" viewBox="0 0 18 18" fill="none" xmlns="http://www.w3.org/2000/svg">
<path d="M2.18399 3.55132L1.61285 3.36748H1.61285L2.18399 3.55132ZM1.6712 5.1445L2.24234 5.32833L1.6712 5.1445ZM15.816 3.55132L15.2449 3.73515V3.73515L15.816 3.55132ZM16.3288 5.1445L16.8999 4.96066V4.96066L16.3288 5.1445ZM7.26895 6.92853C7.03614 6.69272 6.65625 6.6903 6.42044 6.92311C6.18464 7.15593 6.18221 7.53582 6.41503 7.77162L6.84199 7.35007L7.26895 6.92853ZM11.5851 6.92812C11.3523 6.69226 10.9724 6.68974 10.7366 6.9225C10.5007 7.15526 10.4982 7.53515 10.731 7.77101L11.158 7.34956L11.5851 6.92812ZM1.7815 6.80253L2.2679 6.45123L2.2679 6.45122L1.7815 6.80253ZM8.19082 6.15055C8.27396 5.82978 8.08133 5.50234 7.76056 5.41919C7.43979 5.33605 7.11235 5.52868 7.02921 5.84945L7.61001 6L8.19082 6.15055ZM12.5063 6.15055C12.5895 5.82978 12.3968 5.50234 12.0761 5.41919C11.7553 5.33605 11.4279 5.52868 11.3447 5.84945L11.9255 6L12.5063 6.15055ZM16.2185 6.80253L15.7321 6.45122V6.45123L16.2185 6.80253ZM16.4801 6.155L15.8873 6.06249V6.06249L16.4801 6.155ZM1.51988 6.155L0.927051 6.24752L1.51988 6.155ZM3.0413 1.78314L2.6824 1.30231L2.6824 1.30231L3.0413 1.78314ZM2.18399 3.55132L1.61285 3.36748L1.10006 4.96066L1.6712 5.1445L2.24234 5.32833L2.75514 3.73515L2.18399 3.55132ZM15.816 3.55132L15.2449 3.73515L15.7577 5.32833L16.3288 5.1445L16.8999 4.96066L16.3871 3.36748L15.816 3.55132ZM4.93216 1.5V2.1H13.0678V1.5V0.9H4.93216V1.5ZM8.9995 8.25V7.65C8.32068 7.65 7.70871 7.37394 7.26895 6.92853L6.84199 7.35007L6.41503 7.77162C7.07191 8.43694 7.98808 8.85 8.9995 8.85V8.25ZM13.316 8.25V7.65C12.637 7.65 12.0249 7.37377 11.5851 6.92812L11.158 7.34956L10.731 7.77101C11.3879 8.43669 12.3043 8.85 13.316 8.85V8.25ZM4.68398 8.25V7.65C3.76971 7.65 2.77568 7.15428 2.2679 6.45123L1.7815 6.80253L1.2951 7.15383C2.04064 8.18609 3.40564 8.85 4.68398 8.85V8.25ZM7.61001 6L7.02921 5.84945C6.76139 6.88267 5.81431 7.65 4.68398 7.65V8.25V8.85C6.36918 8.85 7.78785 7.70517 8.19082 6.15055L7.61001 6ZM11.9255 6L11.3447 5.84945C11.0769 6.88267 10.1298 7.65 8.9995 7.65V8.25V8.85C10.6847 8.85 12.1034 7.70517 12.5063 6.15055L11.9255 6ZM16.2185 6.80253L15.7321 6.45123C15.2243 7.15428 14.2303 7.65 13.316 7.65V8.25V8.85C14.5944 8.85 15.9594 8.18609 16.7049 7.15383L16.2185 6.80253ZM16.3288 5.1445L15.7577 5.32833C15.8981 5.76462 15.9197 5.85503 15.8873 6.06249L16.4801 6.155L17.0729 6.24752C17.1542 5.72713 17.037 5.38649 16.8999 4.96066L16.3288 5.1445ZM16.2185 6.80253L16.7049 7.15383C16.7681 7.06631 16.857 6.94671 16.9275 6.78808C16.9989 6.62743 17.0406 6.45492 17.0729 6.24751L16.4801 6.155L15.8873 6.06249C15.8629 6.21901 15.842 6.27573 15.831 6.3006C15.819 6.32748 15.8054 6.34968 15.7321 6.45122L16.2185 6.80253ZM15.816 3.55132L16.3871 3.36748C16.232 2.88534 16.1013 2.47665 15.9574 2.15629C15.8077 1.82308 15.6198 1.52788 15.3176 1.30231L14.9587 1.78314L14.5998 2.26396C14.6769 2.32154 14.7583 2.4154 14.8628 2.648C14.973 2.89343 15.0814 3.22726 15.2449 3.73515L15.816 3.55132ZM13.0678 1.5V2.1C13.586 2.1 13.9224 2.10097 14.1785 2.13124C14.4178 2.15954 14.5244 2.20769 14.5998 2.26396L14.9587 1.78314L15.3176 1.30231C15.0137 1.07544 14.6787 0.982024 14.3194 0.939542C13.9767 0.899029 13.5574 0.9 13.0678 0.9V1.5ZM1.6712 5.1445L1.10006 4.96066C0.962995 5.38649 0.845842 5.72713 0.927051 6.24752L1.51988 6.155L2.1127 6.06249C2.08033 5.85503 2.10192 5.76461 2.24234 5.32833L1.6712 5.1445ZM1.7815 6.80253L2.2679 6.45122C2.19456 6.34968 2.18099 6.32748 2.16904 6.3006C2.15798 6.27573 2.13713 6.21901 2.1127 6.06249L1.51988 6.155L0.927051 6.24752C0.959418 6.45493 1.0011 6.62743 1.07252 6.78808C1.14304 6.94671 1.23189 7.06631 1.2951 7.15383L1.7815 6.80253ZM2.18399 3.55132L2.75514 3.73515C2.91861 3.22726 3.02697 2.89343 3.13722 2.648C3.2417 2.4154 3.32307 2.32154 3.40021 2.26396L3.0413 1.78314L2.6824 1.30231C2.38022 1.52788 2.19226 1.82308 2.04259 2.15628C1.89867 2.47665 1.76804 2.88534 1.61285 3.36748L2.18399 3.55132ZM4.93216 1.5V0.9C4.44262 0.9 4.0233 0.899029 3.68064 0.939542C3.32134 0.982024 2.98635 1.07544 2.6824 1.30231L3.0413 1.78314L3.40021 2.26396C3.47558 2.20769 3.58217 2.15954 3.82154 2.13124C4.07756 2.10097 4.41402 2.1 4.93216 2.1V1.5Z" fill="black"/>
<path d="M2.25 7.5L2.25 11.25C2.25 13.3713 2.25 14.432 2.90901 15.091C3.56802 15.75 4.62868 15.75 6.75 15.75H9" stroke="black" stroke-width="1.2" stroke-linecap="round"/>
<path d="M5.25 12.75H8.25" stroke="black" stroke-width="1.2" stroke-linecap="round"/>
<path d="M13.875 10.125C15.3247 10.125 16.5 11.2782 16.5 12.7007C16.5 14.3098 14.9132 15.101 14.1562 16.3072C13.9949 16.5643 13.7667 16.5643 13.5938 16.3072C12.8131 15.1468 11.25 14.2763 11.25 12.7007C11.25 11.2782 12.4253 10.125 13.875 10.125Z" stroke="black" stroke-width="1.2" stroke-linejoin="round"/>
<path d="M13.875 12.75L13.8817 12.75" stroke="black" stroke-width="1.2" stroke-linecap="round" stroke-linejoin="round"/>
</svg>
